<svg width="482" height="320" viewBox="0 0 482 320" fill="none" xmlns="http://www.w3.org/2000/svg">
<g clip-path="url(#clip0_126_450)">
<path d="M255.385 67.5283C251.087 60.4215 245.994 52.8336 238.019 50.513C228.782 47.8256 219.295 53.1642 211.247 58.4322C187.179 74.1872 164.001 91.2612 141.819 109.576L141.844 109.852C159.113 108.661 176.382 107.47 193.651 106.28C206.128 105.419 219.034 104.44 230.06 98.5392C234.244 96.2998 238.323 93.3086 243.064 93.1001C248.955 92.8412 254.091 96.9544 258.127 101.252C282.004 126.672 288.913 165.546 315.7 187.879C298.809 146.231 278.64 105.988 255.385 67.5283Z" fill="#F2F2F2"/>
<path d="M402.149 283.138C399.508 279.805 398.429 279.024 395.825 275.66C374.619 248.238 354.686 219.889 336.028 190.614C323.355 170.732 311.31 150.468 299.893 129.822C294.458 120.007 289.172 110.114 284.035 100.145C280.048 92.4149 276.151 84.6387 272.343 76.8162C271.253 74.5819 270.195 72.3374 269.142 70.0877C266.661 64.7975 264.226 59.4815 261.611 54.2631C258.632 48.3153 255.005 42.08 249.533 38.084C247.044 36.1908 244.066 35.0453 240.949 34.7814C236.495 34.4938 232.386 36.3326 228.522 38.3408C200.258 53.0766 173.796 71.5516 149.862 92.5742C125.867 113.644 104.419 137.448 85.9555 163.5C85.3906 164.307 84.0549 163.536 84.625 162.725C86.87 159.55 89.1595 156.41 91.4935 153.305C120.515 114.714 156.099 81.5286 196.62 55.2646C203.438 50.8475 210.383 46.6375 217.457 42.6347C221.022 40.6161 224.603 38.6233 228.245 36.7537C231.815 34.9201 235.607 33.2713 239.685 33.2097C253.566 32.994 260.753 48.7108 265.69 59.2863C267.241 62.6146 268.812 65.9326 270.401 69.2403C276.406 81.7983 282.642 94.2417 289.11 106.57C293.102 114.182 297.181 121.75 301.347 129.272C314.313 152.699 328.095 175.651 342.691 198.129C362.027 227.903 381.21 254.206 403.238 282.049C403.844 282.82 402.76 283.919 402.149 283.138Z" fill="#E4E4E4"/>
<path d="M148.49 84.8133C147.684 83.9145 146.882 83.0156 146.07 82.1168C139.67 75.0391 132.801 68.0435 124.011 63.9859C119.82 61.9901 115.245 60.9298 110.603 60.8785C105.805 60.8939 101.115 62.1523 96.6818 63.914C94.5858 64.7512 92.536 65.7014 90.5172 66.7132C88.2105 67.874 85.945 69.1119 83.6899 70.36C79.4568 72.7021 75.2785 75.1469 71.1552 77.6945C62.9511 82.7639 55.0038 88.2203 47.3135 94.0636C43.3269 97.094 39.4226 100.224 35.6006 103.453C32.0457 106.452 28.5628 109.532 25.1517 112.693C24.4222 113.366 23.3331 112.277 24.0625 111.604C24.9615 110.767 25.8708 109.935 26.7801 109.113C29.3487 106.791 31.9584 104.514 34.6093 102.282C39.4432 98.2034 44.4023 94.2827 49.4865 90.5196C57.3927 84.6643 65.5711 79.2062 74.0216 74.1454C78.2445 71.6183 82.5254 69.1975 86.8645 66.8827C88.1747 66.1842 89.5001 65.5011 90.8408 64.8539C93.8831 63.3197 97.0441 62.0332 100.293 61.0069C104.896 59.5183 109.765 59.04 114.569 59.6047C119.208 60.2793 123.677 61.8251 127.741 64.1606C136.372 68.9835 143.065 76.4412 149.579 83.7193C150.237 84.4589 149.153 85.5529 148.49 84.8133Z" fill="#E4E4E4"/>
<path d="M325.324 158.157L346.005 150.595L356.273 146.84C359.617 145.617 362.953 144.225 366.41 143.349C369.414 142.491 372.604 142.532 375.586 143.466C378.244 144.45 380.678 145.958 382.742 147.901C384.851 149.843 386.813 151.938 388.612 154.169C390.848 156.855 393.05 159.569 395.263 162.274C404.393 173.439 413.465 184.652 422.476 195.914C431.488 207.176 440.439 218.485 449.33 229.842C458.242 241.227 467.093 252.66 475.883 264.14C476.96 265.546 478.036 266.953 479.111 268.361C479.705 269.139 481.044 268.372 480.442 267.583C471.587 255.988 462.67 244.439 453.692 232.939C444.692 221.411 435.629 209.931 426.504 198.501C417.38 187.071 408.194 175.69 398.946 164.359C396.642 161.536 394.334 158.717 392.023 155.9C390.073 153.524 388.145 151.122 386.006 148.911C382.081 144.852 377.176 141.264 371.305 141.167C367.853 141.11 364.513 142.205 361.306 143.365C357.848 144.615 354.399 145.889 350.946 147.152L330.121 154.767L324.915 156.671C323.991 157.009 324.39 158.499 325.324 158.157Z" fill="#E4E4E4"/>
<path d="M121.291 72.8919C110.781 67.4916 97.3225 68.5493 87.665 75.2962C106.086 78.4736 124.305 82.7251 142.23 88.0289C134.786 83.6678 128.964 76.8348 121.291 72.8919Z" fill="#F2F2F2"/>
<path d="M76.3533 97.6885L74.3301 99.3327C75.0144 98.7572 75.7259 98.2177 76.4567 97.7071C76.4222 97.7011 76.3878 97.6944 76.3533 97.6885Z" fill="#F2F2F2"/>
<path d="M381.963 158.233C379.928 155.755 377.727 153.161 374.682 152.155L371.839 152.267C393.48 190.499 422.707 223.907 457.727 250.438C432.472 219.703 407.218 188.968 381.963 158.233Z" fill="#F2F2F2"/>
<path d="M324.543 273.941C325.859 278.72 328.823 282.879 332.91 285.684C334.491 286.76 336.361 287.792 336.901 289.625C337.186 290.794 337.01 292.027 336.412 293.071C335.814 294.101 335.087 295.05 334.248 295.895L334.171 296.182C330.25 293.859 326.519 290.919 324.352 286.909C322.186 282.899 321.883 277.643 324.543 273.941Z" fill="#F2F2F2"/>
<path d="M63.9672 266.097C65.2828 270.876 68.2466 275.036 72.3343 277.84C73.9147 278.916 75.7844 279.948 76.3251 281.781C76.6095 282.95 76.4342 284.183 75.8355 285.227C75.2379 286.257 74.5107 287.206 73.6717 288.051L73.5952 288.338C69.6734 286.015 65.9424 283.075 63.776 279.065C61.6097 275.055 61.3072 269.799 63.9672 266.097Z" fill="#F2F2F2"/>
<path d="M363.825 57.1481C379.609 57.1481 392.405 44.355 392.405 28.574C392.405 12.793 379.609 0 363.825 0C348.042 0 335.246 12.793 335.246 28.574C335.246 44.355 348.042 57.1481 363.825 57.1481Z" fill="#F9A826"/>
<path d="M415.401 6.65073C401.55 4.77889 385.737 12.264 382.147 25.7693C381.242 23.368 379.598 21.3165 377.45 19.9111C375.303 18.5056 372.765 17.8191 370.202 17.9506C367.638 18.0821 365.184 19.0248 363.191 20.6426C361.199 22.2604 359.773 24.4695 359.119 26.9508L360.705 28.0862C390.387 34.5038 421.112 34.3649 450.735 27.6793C441.1 17.5557 429.252 8.52254 415.401 6.65073Z" fill="#F0F0F0"/>
<path d="M356 44.7494C342.15 42.8775 326.337 50.3626 322.747 63.8679C321.842 61.4667 320.197 59.4151 318.05 58.0097C315.903 56.6043 313.364 55.9177 310.801 56.0492C308.238 56.1807 305.783 57.1235 303.791 58.7413C301.799 60.3591 300.373 62.5682 299.719 65.0494L301.304 66.1849C330.986 72.6024 361.712 72.4635 391.334 65.7779C381.7 55.6543 369.851 46.6212 356 44.7494Z" fill="#F0F0F0"/>
<path d="M476.889 51.9534C476.832 51.9535 476.775 51.9446 476.72 51.9271C328.552 5.07794 197.963 11.2043 114.502 24.5934C103.144 26.4149 91.7558 28.5187 80.6532 30.8468C77.8188 31.4404 74.8782 32.0767 71.9132 32.7393C68.3722 33.5278 64.8783 34.3397 61.5281 35.1517C60.0812 35.4942 58.6626 35.8395 57.2722 36.1874C55.1661 36.7072 53.0291 37.2489 50.7383 37.8442C48.1786 38.504 45.5778 39.1962 43.0066 39.9014C42.9972 39.9047 42.9876 39.9075 42.9778 39.9096L42.9781 39.9102C40.0739 40.703 37.185 41.5188 34.3913 42.3335C32.8792 42.7701 31.4192 43.2007 30.0207 43.6258C29.8645 43.6691 29.726 43.7106 29.5856 43.7533L29.2852 43.8447C29.1112 43.8978 28.9393 43.9497 28.7675 43.999L28.7566 44.0023L28.7568 44.0028L28.3021 44.144C27.7597 44.3082 27.2306 44.4685 26.7101 44.6282C12.9557 48.8675 5.39436 51.8834 5.31966 51.9129C5.25136 51.9403 5.17833 51.9539 5.10474 51.9531C5.03116 51.9523 4.95846 51.9369 4.89079 51.908C4.82313 51.8791 4.76183 51.8371 4.71039 51.7845C4.65895 51.7319 4.61839 51.6696 4.59101 51.6013C4.56363 51.533 4.54997 51.46 4.55082 51.3864C4.55166 51.3129 4.56699 51.2402 4.59593 51.1725C4.62487 51.1049 4.66685 51.0436 4.71948 50.9922C4.77211 50.9407 4.83436 50.9002 4.90266 50.8728C4.97791 50.8432 12.5761 47.8121 26.3807 43.5569C26.903 43.3966 27.4336 43.2363 27.9776 43.0716L28.4 42.9403C28.4145 42.9348 28.429 42.9305 28.4438 42.9261C28.6148 42.8774 28.7856 42.8254 28.959 42.7729L29.26 42.6815C29.41 42.6361 29.5577 42.5912 29.709 42.5497C31.0979 42.1273 32.5629 41.6956 34.0788 41.2573C36.8736 40.4421 39.7652 39.6263 42.6717 38.8324C42.6807 38.8291 42.69 38.8269 42.699 38.8242C45.2793 38.1167 47.8896 37.4213 50.4576 36.7592C52.7519 36.1634 54.893 35.6206 57.0027 35.0997C58.3989 34.7523 59.8203 34.4063 61.2668 34.0618C64.6209 33.2487 68.1219 32.4357 71.6691 31.6456C74.6387 30.9825 77.5843 30.3445 80.4234 29.7503C91.5432 27.4184 102.949 25.3113 114.325 23.4872C197.905 10.0788 328.681 3.9426 477.058 50.8591C477.186 50.8993 477.295 50.9839 477.365 51.0975C477.436 51.2111 477.464 51.3463 477.443 51.4785C477.423 51.6107 477.356 51.7313 477.254 51.8184C477.153 51.9055 477.023 51.9534 476.889 51.9534Z" fill="#CCCCCC"/>
<path d="M147.374 235.226C147.18 234.659 146.853 234.146 146.421 233.73C146.262 233.582 146.089 233.449 145.906 233.332C144.443 232.357 142.258 232.139 140.868 233.332C140.728 233.453 140.599 233.587 140.481 233.73C140.067 234.24 139.641 234.738 139.204 235.226C138.486 236.044 137.752 236.834 136.984 237.601C136.766 237.814 136.547 238.033 136.323 238.246C136.194 238.375 136.065 238.498 135.937 238.621C135.443 239.092 134.939 239.546 134.429 239.994C134.16 240.235 133.891 240.47 133.617 240.7C133.208 241.042 132.798 241.383 132.384 241.714C132.345 241.742 132.305 241.77 132.266 241.803C132.255 241.809 132.249 241.82 132.238 241.826C132.232 241.826 132.227 241.826 132.221 241.837C132.206 241.843 132.193 241.853 132.182 241.865C132.059 241.949 131.975 242.005 131.913 242.056C131.935 242.044 131.958 242.028 131.98 242.016C131.879 242.095 131.773 242.173 131.672 242.252C130.691 242.974 129.688 243.669 128.663 244.319C126.126 245.943 123.461 247.357 120.694 248.549C120.509 248.622 120.319 248.7 120.128 248.773C112.885 251.74 105.028 252.898 97.2368 252.146C96.441 252.085 95.6453 252 94.8496 251.894C93.9305 251.76 93.0171 251.597 92.1093 251.412C88.6532 250.723 85.2716 249.702 82.0113 248.364C77.9329 246.497 74.054 244.222 70.4338 241.574C69.8734 241.176 69.3075 240.778 68.7415 240.392C69.3859 238.812 70.0191 237.232 70.6356 235.64C70.9438 234.873 71.2408 234.105 71.5322 233.332C73.8241 227.376 75.976 221.365 78.0382 215.33C80.1228 209.218 82.0897 203.07 83.939 196.886C84.1295 196.259 84.3144 195.631 84.4937 195.004C85.4632 191.737 86.3934 188.463 87.2844 185.182C87.3685 184.863 87.4582 184.549 87.5366 184.23C87.7944 183.288 88.0465 182.347 88.2931 181.406C88.8535 179.282 87.587 176.744 85.3567 176.235C84.2829 175.959 83.1441 176.111 82.1803 176.659C81.2165 177.207 80.503 178.107 80.19 179.17C79.9491 180.078 79.7081 180.98 79.4615 181.888C78.2791 186.275 77.0351 190.647 75.7294 195.004C75.5389 195.631 75.3484 196.259 75.1578 196.886C72.2775 206.377 69.1151 215.773 65.6706 225.074C65.2559 226.2 64.8356 227.322 64.4097 228.441C64.2024 228.99 63.9951 229.539 63.7821 230.088C63.373 231.169 62.9528 232.251 62.5325 233.332C62.2915 233.965 62.0449 234.598 61.7984 235.226C61.6359 235.624 61.479 236.021 61.3221 236.414C59.7243 235.84 58.0689 235.442 56.3851 235.226L56.1161 235.192C54.8107 235.035 53.4904 235.047 52.1879 235.226C50.2383 235.453 48.3626 236.106 46.6932 237.138C45.0238 238.17 43.6015 239.556 42.5269 241.198C39.8539 245.406 39.8875 251.423 43.6365 254.998C47.4975 258.679 53.3422 258.651 57.8869 256.348C60.2953 255.045 62.326 253.143 63.7821 250.824C64.3399 249.983 64.8525 249.114 65.3176 248.219C65.4352 248.297 65.5529 248.376 65.6706 248.46C66.1189 248.773 66.5672 249.093 67.0099 249.406C69.5893 251.275 72.3076 252.944 75.141 254.398C81.2334 257.427 87.7915 259.41 94.5414 260.265C94.6927 260.281 94.8383 260.304 94.9896 260.321C95.735 260.416 96.4859 260.489 97.2368 260.55C108.008 261.362 118.793 259.158 128.383 254.186C129.195 253.765 130 253.325 130.798 252.863C132.036 252.146 133.247 251.384 134.429 250.577C135.074 250.14 135.701 249.698 136.323 249.233C139.041 247.231 141.575 244.99 143.894 242.537C144.774 241.613 145.616 240.659 146.421 239.674C147.183 238.869 147.621 237.812 147.654 236.705C147.65 236.199 147.555 235.698 147.374 235.226ZM54.5807 248.572C54.6984 248.488 54.816 248.398 54.9281 248.308C54.8945 248.392 54.732 248.488 54.5807 248.572ZM56.3795 246.762C56.2506 246.908 56.1329 247.053 56.004 247.199C55.6119 247.638 55.1907 248.049 54.7432 248.432C54.6815 248.488 54.6143 248.544 54.5471 248.594C54.5463 248.594 54.5456 248.594 54.5449 248.594C54.5442 248.595 54.5436 248.595 54.5431 248.596C54.5425 248.596 54.5421 248.597 54.5419 248.597C54.5416 248.598 54.5414 248.599 54.5415 248.6C54.4605 248.636 54.3819 248.677 54.3061 248.723C54.0651 248.869 53.8186 249.003 53.5664 249.126C53.0727 249.308 52.5647 249.449 52.0478 249.546C51.6505 249.575 51.2519 249.579 50.8542 249.558H50.843C50.5685 249.497 50.2973 249.422 50.0304 249.334C49.8959 249.266 49.767 249.188 49.6381 249.109C49.5877 249.065 49.5428 249.02 49.5149 248.992C49.4601 248.942 49.4095 248.888 49.3636 248.829C49.3636 248.829 49.3635 248.828 49.3632 248.827C49.3629 248.826 49.3625 248.826 49.362 248.825C49.3615 248.825 49.3608 248.824 49.3601 248.824C49.3595 248.824 49.3587 248.824 49.358 248.824C49.2963 248.712 49.2291 248.6 49.1675 248.488C49.1643 248.485 49.1623 248.481 49.1618 248.476C49.117 248.336 49.0778 248.191 49.0442 248.045C49.032 247.789 49.0339 247.533 49.0498 247.277C49.125 246.919 49.2261 246.567 49.3524 246.224C49.4658 245.981 49.595 245.745 49.739 245.518C49.7502 245.496 49.8063 245.406 49.8679 245.305C49.8735 245.3 49.8735 245.3 49.8735 245.294C49.9576 245.199 50.0416 245.098 50.1313 245.008C50.2826 244.84 50.4451 244.695 50.6076 244.543C50.9237 244.336 51.2511 244.147 51.5883 243.977C52.1233 243.787 52.6722 243.639 53.2302 243.535C54.053 243.469 54.88 243.477 55.7015 243.557C56.4796 243.692 57.2473 243.881 57.999 244.123C57.5434 245.007 57.0246 245.857 56.4468 246.667C56.4243 246.7 56.4019 246.734 56.3795 246.762ZM50.1481 244.919C50.0987 244.998 50.0404 245.071 49.9744 245.137C50.0188 245.055 50.0777 244.981 50.1481 244.919Z" fill="#A9A9A9"/>
<path d="M130.528 178.005C130.478 179.764 130.427 181.524 130.377 183.283C130.27 187.188 130.16 191.095 130.046 195.004C129.929 199.402 129.805 203.798 129.676 208.193C129.615 210.462 129.551 212.731 129.486 215C129.312 221.113 129.14 227.223 128.97 233.332C128.954 233.965 128.931 234.593 128.914 235.226C128.83 238.257 128.746 241.288 128.662 244.319C128.567 247.608 128.473 250.897 128.382 254.186C128.315 256.651 128.246 259.118 128.175 261.587C127.67 279.476 127.166 297.366 126.662 315.256C126.64 316.363 126.191 317.42 125.407 318.203C124.623 318.987 123.567 319.436 122.459 319.458C121.347 319.449 120.283 319.003 119.497 318.217C118.71 317.431 118.265 316.367 118.256 315.256C118.536 305.193 118.82 295.131 119.108 285.068C119.36 275.969 119.616 266.87 119.875 257.771C119.959 254.774 120.043 251.775 120.128 248.773C120.256 244.258 120.383 239.742 120.509 235.226C120.525 234.593 120.548 233.965 120.565 233.332C120.576 232.778 120.593 232.228 120.609 231.674C120.856 222.906 121.103 214.135 121.349 205.363C121.45 201.912 121.547 198.459 121.641 195.004C121.753 191.065 121.865 187.128 121.977 183.193C122.027 181.462 122.072 179.736 122.122 178.005C122.144 176.897 122.593 175.841 123.377 175.057C124.161 174.274 125.217 173.824 126.325 173.803C127.437 173.812 128.501 174.258 129.287 175.044C130.074 175.83 130.519 176.893 130.528 178.005Z" fill="#A9A9A9"/>
<path d="M361.084 179.171C356.677 195.856 351.41 212.302 345.303 228.442C343.618 232.895 341.895 237.338 340.052 241.728L340.476 240.724C339.653 242.815 338.603 244.808 337.343 246.669C337.258 246.789 337.17 246.908 337.082 247.026C337.517 246.469 337.6 246.359 337.33 246.696C337.187 246.864 337.047 247.033 336.9 247.198C336.507 247.637 336.086 248.049 335.639 248.432C335.527 248.528 335.412 248.622 335.296 248.715L335.822 248.306C335.761 248.45 335.333 248.641 335.2 248.722C334.768 248.983 334.317 249.211 333.852 249.405L334.856 248.981C334.093 249.289 333.298 249.507 332.485 249.632L333.602 249.482C332.804 249.592 331.994 249.601 331.194 249.507L332.311 249.657C331.656 249.567 331.015 249.395 330.403 249.144L331.407 249.567C331.081 249.425 330.766 249.257 330.466 249.065C330.314 248.966 329.847 248.612 330.458 249.079C331.093 249.564 330.539 249.121 330.409 248.992C330.3 248.884 330.202 248.768 330.095 248.658C329.601 248.151 330.653 249.53 330.318 248.938C330.138 248.641 329.974 248.334 329.825 248.021L330.249 249.024C330.056 248.547 329.919 248.048 329.841 247.539L329.991 248.656C329.911 248.023 329.91 247.382 329.989 246.748L329.839 247.865C329.942 247.158 330.129 246.466 330.397 245.803L329.973 246.807C330.16 246.362 330.38 245.931 330.633 245.519C330.75 245.307 330.886 245.106 331.041 244.919C331.069 244.928 330.331 245.767 330.722 245.343C330.825 245.233 330.921 245.116 331.024 245.006C331.19 244.83 331.368 244.669 331.543 244.503C332.129 243.946 330.724 245.044 331.399 244.603C331.889 244.282 332.404 244.001 332.94 243.763L331.936 244.187C332.833 243.818 333.774 243.566 334.735 243.436L333.618 243.586C334.822 243.448 336.038 243.462 337.238 243.629L336.121 243.479C337.641 243.709 339.126 244.127 340.543 244.723L339.54 244.299C342.56 245.596 345.235 247.52 347.905 249.408C350.484 251.275 353.201 252.943 356.034 254.398C362.127 257.427 368.685 259.41 375.435 260.266C385.116 261.452 394.94 260.188 404.005 256.59C413.07 252.992 421.087 247.176 427.318 239.675C428.079 238.869 428.517 237.811 428.549 236.704C428.542 235.591 428.1 234.525 427.318 233.732C425.777 232.317 422.864 231.918 421.375 233.732C419.964 235.455 418.446 237.088 416.832 238.622C416.078 239.337 415.305 240.03 414.511 240.7C414.057 241.083 413.598 241.459 413.132 241.827C412.911 242.001 412.225 242.465 413.279 241.716C413.037 241.888 412.806 242.075 412.567 242.251C409.038 244.853 405.213 247.028 401.173 248.731L402.177 248.307C397.842 250.125 393.289 251.373 388.632 252.018L389.75 251.868C384.959 252.498 380.106 252.49 375.318 251.846L376.435 251.996C371.648 251.339 366.965 250.064 362.506 248.203L363.51 248.627C359.206 246.723 355.122 244.358 351.329 241.572C349.355 240.111 347.273 238.801 345.102 237.654C342.572 236.362 339.832 235.529 337.011 235.195C331.722 234.573 326.332 236.632 323.424 241.201C320.748 245.406 320.782 251.423 324.53 254.998C328.39 258.68 334.235 258.649 338.783 256.346C343.164 254.128 345.795 249.519 347.646 245.173C351.81 235.393 355.497 225.388 358.932 215.331C362.33 205.382 365.412 195.332 368.177 185.181C368.52 183.924 368.857 182.665 369.19 181.405C369.751 179.283 368.483 176.744 366.254 176.236C365.18 175.96 364.041 176.111 363.076 176.659C362.111 177.206 361.397 178.107 361.084 179.171Z" fill="#A9A9A9"/>
<path d="M403.019 178.005L401.506 231.675L400.001 285.066L399.15 315.256C399.16 316.367 399.606 317.431 400.392 318.217C401.178 319.003 402.242 319.449 403.353 319.458C404.461 319.437 405.518 318.987 406.301 318.204C407.085 317.42 407.535 316.364 407.556 315.256L409.069 261.585L410.574 208.194L411.425 178.005C411.415 176.893 410.969 175.83 410.183 175.044C409.397 174.258 408.334 173.812 407.222 173.803C406.114 173.824 405.057 174.274 404.274 175.057C403.49 175.841 403.04 176.897 403.019 178.005Z" fill="#A9A9A9"/>
<path d="M291.334 218.541C286.51 209.133 279.036 201.217 270.246 195.4C261.427 189.591 251.308 186.053 240.791 185.102C239.412 184.977 238.03 184.903 236.644 184.882C235.007 184.857 210.382 191.959 202.132 197.758C193.887 203.487 187.105 211.073 182.332 219.904C177.568 228.784 175.225 238.761 175.537 248.833C175.946 258.966 178.771 268.854 183.777 277.674C188.714 286.465 195.725 293.917 204.199 299.382C212.794 304.865 221.428 319.404 231.576 319.917C241.801 320.434 253.461 306.72 262.787 302.556C272.112 298.357 280.174 291.788 286.169 283.504C291.994 275.385 295.763 265.974 297.152 256.079C298.594 245.948 297.922 235.499 294.461 225.815C293.573 223.327 292.529 220.898 291.334 218.541C290.337 216.577 287.414 215.854 285.584 217.034C284.641 217.614 283.958 218.535 283.677 219.606C283.397 220.677 283.539 221.815 284.076 222.783C284.662 223.936 285.206 225.109 285.71 226.3L285.286 225.296C287.191 229.877 288.487 234.687 289.139 239.605L288.989 238.488C289.683 243.823 289.671 249.226 288.952 254.558L289.102 253.441C288.376 258.772 286.953 263.985 284.869 268.946L285.293 267.942C284.221 270.473 282.971 272.925 281.554 275.281C280.836 276.471 280.073 277.632 279.267 278.766C278.913 279.264 278.548 279.753 278.181 280.241C277.701 280.877 278.835 279.41 278.339 280.034C278.254 280.14 278.17 280.247 278.086 280.353C277.831 280.671 277.573 280.986 277.311 281.298C275.564 283.382 273.658 285.327 271.609 287.116C271.098 287.561 270.579 287.997 270.052 288.422C269.789 288.634 269.53 288.855 269.256 289.052C269.266 289.045 270.141 288.38 269.623 288.766C269.46 288.887 269.299 289.01 269.136 289.131C268.049 289.936 266.933 290.7 265.788 291.424C263.152 293.084 260.387 294.529 257.519 295.745L258.523 295.322C253.576 297.404 248.377 298.826 243.059 299.552L244.176 299.402C238.86 300.121 233.473 300.13 228.155 299.431L229.272 299.581C224.439 298.932 219.711 297.654 215.21 295.78L216.213 296.203C213.606 295.102 211.092 293.793 208.695 292.286C207.51 291.539 206.354 290.746 205.23 289.907C205.07 289.787 204.911 289.665 204.751 289.545C204.238 289.158 205.12 289.831 205.127 289.835C204.828 289.621 204.541 289.392 204.267 289.149C203.724 288.707 203.189 288.255 202.663 287.792C200.558 285.939 198.593 283.933 196.783 281.792C196.33 281.256 195.886 280.713 195.453 280.161C195.265 279.922 194.922 279.438 195.679 280.457C195.579 280.323 195.476 280.192 195.376 280.058C195.134 279.738 194.896 279.415 194.661 279.09C193.838 277.952 193.055 276.785 192.314 275.591C190.638 272.887 189.176 270.057 187.94 267.126L188.364 268.13C186.341 263.319 184.958 258.264 184.25 253.094L184.4 254.211C183.761 249.445 183.752 244.616 184.373 239.848L184.223 240.965C184.86 236.347 186.102 231.834 187.919 227.541L187.495 228.545C188.638 225.858 189.986 223.262 191.527 220.782C192.299 219.54 193.116 218.329 193.98 217.148C194.176 216.88 194.375 216.613 194.575 216.348C194.757 216.109 195.256 215.512 194.404 216.566C194.488 216.463 194.568 216.356 194.651 216.252C195.125 215.652 195.61 215.06 196.107 214.479C197.989 212.276 200.027 210.213 202.206 208.304C202.757 207.822 203.316 207.349 203.884 206.887C204.142 206.677 204.402 206.469 204.664 206.264C204.768 206.181 204.874 206.101 204.978 206.018C203.859 206.908 204.667 206.26 204.921 206.07C206.092 205.193 207.294 204.36 208.528 203.57C211.269 201.817 214.154 200.298 217.15 199.028L216.146 199.451C220.495 197.626 239.761 193.317 243.265 193.787L242.148 193.637C247.298 194.356 252.332 195.746 257.121 197.773L256.117 197.35C258.544 198.38 260.902 199.564 263.178 200.896C264.315 201.562 265.43 202.265 266.522 203.004C267.039 203.354 267.55 203.711 268.056 204.077C268.309 204.259 268.561 204.444 268.811 204.631C268.95 204.734 269.087 204.839 269.226 204.943C269.809 205.38 268.424 204.311 269.034 204.794C271.078 206.399 273.018 208.13 274.844 209.978C275.741 210.892 276.607 211.834 277.443 212.805C277.871 213.303 278.291 213.809 278.702 214.322C278.906 214.577 279.601 215.499 278.749 214.369C278.957 214.645 279.168 214.92 279.373 215.198C281.144 217.594 282.717 220.131 284.076 222.783C285.081 224.743 287.991 225.473 289.826 224.29C290.769 223.71 291.452 222.789 291.733 221.718C292.014 220.647 291.871 219.509 291.334 218.541Z" fill="#A9A9A9"/>
<path d="M53.3751 252.124C56.7795 252.124 59.5393 249.365 59.5393 245.961C59.5393 242.557 56.7795 239.798 53.3751 239.798C49.9707 239.798 47.2109 242.557 47.2109 245.961C47.2109 249.365 49.9707 252.124 53.3751 252.124Z" fill="#A9A9A9"/>
<path d="M127.346 319.357C130.75 319.357 133.51 316.598 133.51 313.194C133.51 309.79 130.75 307.031 127.346 307.031C123.941 307.031 121.182 309.79 121.182 313.194C121.182 316.598 123.941 319.357 127.346 319.357Z" fill="#A9A9A9"/>
<path d="M408.096 319.357C411.5 319.357 414.26 316.598 414.26 313.194C414.26 309.79 411.5 307.031 408.096 307.031C404.691 307.031 401.932 309.79 401.932 313.194C401.932 316.598 404.691 319.357 408.096 319.357Z" fill="#A9A9A9"/>
<path d="M423.226 240.918C426.63 240.918 429.39 238.159 429.39 234.755C429.39 231.352 426.63 228.592 423.226 228.592C419.821 228.592 417.062 231.352 417.062 234.755C417.062 238.159 419.821 240.918 423.226 240.918Z" fill="#A9A9A9"/>
<path d="M405.294 183.77C408.698 183.77 411.458 181.011 411.458 177.607C411.458 174.203 408.698 171.444 405.294 171.444C401.89 171.444 399.13 174.203 399.13 177.607C399.13 181.011 401.89 183.77 405.294 183.77Z" fill="#A9A9A9"/>
<path d="M148.08 234.755C148.076 236.329 147.467 237.842 146.379 238.98C145.291 240.118 143.807 240.794 142.234 240.868C140.661 240.943 139.12 240.41 137.929 239.38C136.739 238.35 135.99 236.901 135.837 235.334C135.685 233.768 136.141 232.202 137.111 230.962C138.081 229.722 139.491 228.902 141.048 228.672C142.606 228.442 144.192 228.82 145.479 229.727C146.766 230.634 147.655 232.001 147.962 233.545C148.041 233.944 148.081 234.349 148.08 234.755Z" fill="#A9A9A9"/>
<path d="M271.363 201.699C274.768 201.699 277.528 198.94 277.528 195.536C277.528 192.132 274.768 189.373 271.363 189.373C267.959 189.373 265.199 192.132 265.199 195.536C265.199 198.94 267.959 201.699 271.363 201.699Z" fill="#A9A9A9"/>
<path d="M210.282 195.536C210.278 197.11 209.669 198.623 208.581 199.761C207.493 200.899 206.009 201.575 204.436 201.649C202.864 201.724 201.322 201.191 200.132 200.16C198.941 199.13 198.192 197.682 198.04 196.115C197.887 194.548 198.343 192.983 199.313 191.743C200.283 190.503 201.693 189.683 203.25 189.453C204.808 189.223 206.395 189.601 207.682 190.508C208.968 191.415 209.857 192.782 210.164 194.326C210.243 194.724 210.283 195.13 210.282 195.536Z" fill="#A9A9A9"/>
<path d="M130.708 177.607C130.704 179.181 130.095 180.694 129.007 181.832C127.919 182.97 126.435 183.646 124.862 183.72C123.289 183.795 121.748 183.262 120.557 182.232C119.367 181.202 118.618 179.753 118.465 178.186C118.313 176.619 118.769 175.054 119.739 173.814C120.709 172.574 122.118 171.754 123.676 171.524C125.234 171.294 126.82 171.672 128.107 172.579C129.394 173.486 130.283 174.853 130.59 176.397C130.669 176.795 130.709 177.201 130.708 177.607Z" fill="#A9A9A9"/>
<path d="M335.807 254.365C339.211 254.365 341.971 251.606 341.971 248.202C341.971 244.798 339.211 242.039 335.807 242.039C332.402 242.039 329.643 244.798 329.643 248.202C329.643 251.606 332.402 254.365 335.807 254.365Z" fill="#A9A9A9"/>
<path d="M238.861 198.337C243.812 198.337 247.827 194.324 247.827 189.373C247.827 184.422 243.812 180.409 238.861 180.409C233.909 180.409 229.895 184.422 229.895 189.373C229.895 194.324 233.909 198.337 238.861 198.337Z" fill="#A9A9A9"/>
<path d="M481.333 319.828L0.667229 320C0.579607 320 0.49284 319.983 0.411888 319.949C0.330935 319.916 0.257385 319.867 0.195427 319.805C0.133468 319.743 0.0843143 319.669 0.0507827 319.588C0.0172511 319.507 0 319.421 0 319.333C0 319.245 0.0172511 319.159 0.0507827 319.078C0.0843143 318.997 0.133468 318.923 0.195427 318.861C0.257385 318.799 0.330935 318.75 0.411888 318.717C0.49284 318.683 0.579607 318.666 0.667229 318.666L481.333 318.494C481.509 318.494 481.679 318.565 481.803 318.69C481.928 318.815 481.998 318.984 481.998 319.161C481.998 319.337 481.928 319.507 481.803 319.632C481.679 319.757 481.509 319.827 481.333 319.828Z" fill="#F0F0F0"/>
</g>
<defs>
<clipPath id="clip0_126_450">
<rect width="482" height="320" fill="white"/>
</clipPath>
</defs>
</svg>
