<svg width="682" height="308" viewBox="0 0 682 308" fill="none" xmlns="http://www.w3.org/2000/svg">
<g clip-path="url(#clip0_126_184)">
<path d="M616.585 124.044H595.973V195.37H616.585V124.044Z" fill="#F2F2F2"/>
<path d="M630.198 181.952L580.064 122.331L479.431 123.251L418.385 182.69L419.618 183.482H419.178V307.115H630.063V183.482L630.198 181.952Z" fill="#F2F2F2"/>
<path d="M580.117 122.459L517.486 195.861V307.115H630.064V181.897L580.117 122.459Z" fill="#E6E6E6"/>
<path d="M585.666 245.59H562.675V265.904H585.666V245.59Z" fill="#3F3D56"/>
<path d="M585.666 210.428H562.675V230.42H585.666V210.428Z" fill="#3F3D56"/>
<path d="M585.666 245.59H562.675V265.904H585.666V245.59Z" fill="white"/>
<path d="M585.666 210.428H562.675V230.42H585.666V210.428Z" fill="white"/>
<path d="M483.492 240.2H460.501V260.514H483.492V240.2Z" fill="white"/>
<path d="M483.492 205.038H460.501V225.03H483.492V205.038Z" fill="white"/>
<path d="M453.921 124.044H433.309V195.37H453.921V124.044Z" fill="#F2F2F2"/>
<path d="M467.535 181.952L417.401 122.331L316.768 123.251L255.722 182.69L256.955 183.482H256.514V307.115H467.4V183.482L467.535 181.952Z" fill="#F2F2F2"/>
<path d="M417.453 122.459L354.822 195.861V307.115H467.4V181.897L417.453 122.459Z" fill="#E6E6E6"/>
<path d="M423.003 245.59H400.012V265.904H423.003V245.59Z" fill="#3F3D56"/>
<path d="M423.003 210.428H400.012V230.42H423.003V210.428Z" fill="#3F3D56"/>
<path d="M423.003 245.59H400.012V265.904H423.003V245.59Z" fill="white"/>
<path d="M423.003 210.428H400.012V230.42H423.003V210.428Z" fill="white"/>
<path d="M320.828 240.2H297.837V260.514H320.828V240.2Z" fill="white"/>
<path d="M320.828 205.038H297.837V225.03H320.828V205.038Z" fill="white"/>
<path d="M287.364 62.4872H259.82V157.797H287.364V62.4872Z" fill="#F2F2F2"/>
<path d="M305.554 139.867L238.563 60.1996L104.092 61.4281L22.5205 140.853L24.1683 141.912H23.5799V307.115H305.373V141.912L305.554 139.867Z" fill="#F2F2F2"/>
<path d="M238.633 60.3691L154.942 158.453V307.115H305.374V139.794L238.633 60.3691Z" fill="#E6E6E6"/>
<path d="M246.049 224.903H215.327V252.047H246.049V224.903Z" fill="#3F3D56"/>
<path d="M246.049 177.918H215.327V204.632H246.049V177.918Z" fill="#3F3D56"/>
<path d="M246.049 224.903H215.327V252.047H246.049V224.903Z" fill="white"/>
<path d="M246.049 177.918H215.327V204.632H246.049V177.918Z" fill="white"/>
<path d="M109.519 217.7H78.7969V244.845H109.519V217.7Z" fill="white"/>
<path d="M109.519 170.715H78.7969V197.429H109.519V170.715Z" fill="white"/>
<path d="M658.824 306.505H0V307.871H658.824V306.505Z" fill="#3F3D56"/>
<path d="M103.798 281.381C114.782 281.381 123.687 263.219 123.687 240.815C123.687 218.411 114.782 200.249 103.798 200.249C92.8144 200.249 83.9102 218.411 83.9102 240.815C83.9102 263.219 92.8144 281.381 103.798 281.381Z" fill="#3F3D56"/>
<path d="M105.635 307.214C97.6698 259.44 105.555 211.839 105.636 211.364L107.185 211.626C107.105 212.099 99.2648 259.45 107.185 306.957L105.635 307.214Z" fill="#008A62"/>
<path d="M121.309 232.092L103.324 241.708L104.066 243.094L122.05 233.478L121.309 232.092Z" fill="#008A62"/>
<path d="M85.0845 236.909L84.3428 238.294L102.325 247.916L103.067 246.531L85.0845 236.909Z" fill="#008A62"/>
<path d="M56.0134 257.595C77.4968 257.595 94.9125 222.073 94.9125 178.254C94.9125 134.435 77.4968 98.9122 56.0134 98.9122C34.53 98.9122 17.1143 134.435 17.1143 178.254C17.1143 222.073 34.53 257.595 56.0134 257.595Z" fill="#008A62"/>
<path d="M60.3465 308C44.7877 214.683 60.1895 121.705 60.3469 120.777L61.8963 121.039C61.7393 121.965 46.3828 214.692 61.8966 307.742L60.3465 308Z" fill="#3F3D56"/>
<path d="M90.6147 161.855L55.4385 180.663L56.1798 182.049L91.356 163.24L90.6147 161.855Z" fill="#3F3D56"/>
<path d="M19.0562 171.277L18.3145 172.662L53.4854 191.48L54.2271 190.095L19.0562 171.277Z" fill="#3F3D56"/>
<path d="M148.142 239.073C177.541 239.073 201.373 190.463 201.373 130.5C201.373 70.537 177.541 21.9274 148.142 21.9274C118.744 21.9274 94.9121 70.537 94.9121 130.5C94.9121 190.463 118.744 239.073 148.142 239.073Z" fill="#008A62"/>
<path d="M154.358 308C133.075 180.35 154.143 53.1652 154.358 51.8955L155.907 52.1579C155.692 53.4252 134.67 180.36 155.908 307.742L154.358 308Z" fill="#3F3D56"/>
<path d="M195.629 108.314L147.493 134.052L148.234 135.437L196.37 109.7L195.629 108.314Z" fill="#3F3D56"/>
<path d="M97.4341 121.208L96.6924 122.593L144.821 148.343L145.563 146.958L97.4341 121.208Z" fill="#3F3D56"/>
<path d="M595.315 281.381C606.299 281.381 615.203 263.219 615.203 240.815C615.203 218.411 606.299 200.249 595.315 200.249C584.331 200.249 575.427 218.411 575.427 240.815C575.427 263.219 584.331 281.381 595.315 281.381Z" fill="#3F3D56"/>
<path d="M593.479 307.214C601.444 259.44 593.559 211.839 593.478 211.364L591.929 211.626C592.009 212.099 599.849 259.45 591.929 306.957L593.479 307.214Z" fill="#008A62"/>
<path d="M577.806 232.092L577.064 233.478L595.049 243.094L595.79 241.708L577.806 232.092Z" fill="#008A62"/>
<path d="M614.029 236.909L596.047 246.531L596.789 247.916L614.771 238.294L614.029 236.909Z" fill="#008A62"/>
<path d="M643.101 257.595C664.585 257.595 682 222.073 682 178.254C682 134.435 664.585 98.9122 643.101 98.9122C621.618 98.9122 604.202 134.435 604.202 178.254C604.202 222.073 621.618 257.595 643.101 257.595Z" fill="#008A62"/>
<path d="M638.768 308C654.327 214.683 638.925 121.705 638.768 120.777L637.218 121.039C637.375 121.965 652.732 214.692 637.218 307.742L638.768 308Z" fill="#3F3D56"/>
<path d="M608.499 161.855L607.758 163.24L642.934 182.049L643.675 180.663L608.499 161.855Z" fill="#3F3D56"/>
<path d="M680.058 171.277L644.887 190.095L645.628 191.48L680.799 172.662L680.058 171.277Z" fill="#3F3D56"/>
<path d="M550.972 239.073C580.37 239.073 604.202 190.463 604.202 130.5C604.202 70.537 580.37 21.9274 550.972 21.9274C521.573 21.9274 497.741 70.537 497.741 130.5C497.741 190.463 521.573 239.073 550.972 239.073Z" fill="#008A62"/>
<path d="M544.756 308C566.039 180.35 544.971 53.1652 544.756 51.8955L543.206 52.1579C543.421 53.4252 564.444 180.36 543.206 307.742L544.756 308Z" fill="#3F3D56"/>
<path d="M503.485 108.314L502.744 109.7L550.88 135.437L551.621 134.052L503.485 108.314Z" fill="#3F3D56"/>
<path d="M601.681 121.207L553.552 146.958L554.293 148.343L602.422 122.593L601.681 121.207Z" fill="#3F3D56"/>
<path d="M402.972 69.3233L409.264 64.2929C404.376 63.7538 402.368 66.4186 401.546 68.5277C397.727 66.9427 393.57 69.02 393.57 69.02L406.159 73.5884C405.524 71.8928 404.418 70.4132 402.972 69.3233Z" fill="#3F3D56"/>
<path d="M249.193 24.9141L255.484 19.8837C250.597 19.3447 248.588 22.0094 247.766 24.1186C243.948 22.5335 239.791 24.6108 239.791 24.6108L252.38 29.1793C251.745 27.4836 250.639 26.0041 249.193 24.9141Z" fill="#3F3D56"/>
<path d="M500.024 5.10084L506.315 0.0704478C501.428 -0.468611 499.419 2.19612 498.598 4.30528C494.779 2.72021 490.622 4.79751 490.622 4.79751L503.211 9.36598C502.576 7.67031 501.47 6.19077 500.024 5.10084Z" fill="#3F3D56"/>
<path d="M512.727 298.602C511.055 298.601 509.412 299.042 507.964 299.879C506.493 298.55 504.669 297.676 502.711 297.363C500.753 297.051 498.747 297.313 496.936 298.118C495.124 298.923 493.585 300.237 492.506 301.899C491.427 303.562 490.854 305.502 490.856 307.483H522.261C522.09 305.072 521.011 302.815 519.242 301.167C517.473 299.519 515.145 298.603 512.727 298.602Z" fill="#3F3D56"/>
<path d="M193.55 298.602C191.878 298.601 190.235 299.042 188.787 299.879C187.317 298.55 185.492 297.676 183.534 297.363C181.577 297.051 179.57 297.313 177.759 298.118C175.947 298.923 174.409 300.237 173.33 301.899C172.25 303.562 171.677 305.502 171.68 307.483H203.084C202.913 305.072 201.835 302.815 200.066 301.167C198.297 299.519 195.969 298.603 193.55 298.602Z" fill="#3F3D56"/>
<path d="M356.897 298.602C355.225 298.601 353.582 299.042 352.134 299.879C350.663 298.55 348.839 297.676 346.881 297.363C344.923 297.051 342.917 297.313 341.105 298.118C339.294 298.923 337.755 300.237 336.676 301.899C335.597 303.562 335.024 305.502 335.026 307.483H366.431C366.26 305.072 365.181 302.815 363.412 301.167C361.643 299.519 359.315 298.603 356.897 298.602Z" fill="#3F3D56"/>
<path d="M322.429 276.176H231.824V279.097H245.955V306.853H248.877V279.097H303.914V306.853H306.838V279.097H322.429V276.176Z" fill="#3F3D56"/>
<path d="M322.607 267.435H232.002V270.356H322.607V267.435Z" fill="#3F3D56"/>
<path d="M322.607 260.13H232.002V263.052H322.607V260.13Z" fill="#3F3D56"/>
<path d="M322.607 252.826H232.002V255.748H322.607V252.826Z" fill="#3F3D56"/>
<path d="M463.906 276.176H373.301V279.097H387.431V306.853H390.354V279.097H445.391V306.853H448.314V279.097H463.906V276.176Z" fill="#3F3D56"/>
<path d="M464.084 267.435H373.479V270.356H464.084V267.435Z" fill="#3F3D56"/>
<path d="M464.084 260.13H373.479V263.052H464.084V260.13Z" fill="#3F3D56"/>
<path d="M464.084 252.826H373.479V255.748H464.084V252.826Z" fill="#3F3D56"/>
</g>
<defs>
<clipPath id="clip0_126_184">
<rect width="682" height="308" fill="white"/>
</clipPath>
</defs>
</svg>
